<?xml version="1.0" encoding="utf-8"?>
<svg width="512.435" height="95.781" viewBox="0 0 512.435 95.781" fill="none" xmlns="http://www.w3.org/2000/svg">
  <g id="Group">
    <path id="path1#1" d="M33.9522 21.034C33.226 20.1743 32.0253 19.2924 30.3503 18.3881C28.6901 17.4838 26.7706 17.0317 24.5916 17.0317C22.1606 17.0317 20.1965 17.5654 18.6993 18.6328C17.217 19.6852 16.4759 21.2416 16.4759 23.3019C16.4759 25.1252 17.0984 26.7557 18.3436 28.1935C19.5888 29.6166 21.6047 31.3287 24.3914 33.3297C27.4894 35.6274 29.8537 37.8582 31.4843 40.0223C33.1296 42.1718 33.9522 44.9215 33.9522 48.2715C33.9522 51.6068 33.0407 54.4453 31.2175 56.7874C29.409 59.1146 26.9855 60.8712 23.9468 62.0571C20.908 63.2428 17.5654 63.8356 13.9189 63.8356C11.1914 63.8356 8.39729 63.517 5.53643 62.8796C2.6904 62.2422 0.844917 61.5604 0 60.834C0 60.834 1.82323 53.0965 1.82323 53.0965C3.09803 54.1785 4.82492 55.2086 7.00391 56.187C9.19774 57.1506 11.4731 57.6323 13.8299 57.6323C16.0831 57.6323 18.0101 57.1209 19.611 56.098C21.2266 55.0604 22.0345 53.4521 22.0345 51.2731C22.0345 49.3906 21.3304 47.6933 19.9222 46.1813C18.5289 44.6546 16.4388 42.9203 13.6521 40.9786C11.1025 39.2145 8.96056 37.1318 7.22625 34.7305C5.50678 32.3293 4.64704 29.4313 4.64704 26.0368C4.64704 23.1314 5.47714 20.5522 7.13733 18.2991C8.81233 16.046 11.1173 14.2969 14.0523 13.0518C17.0021 11.8066 20.3892 11.184 24.2136 11.184C26.4667 11.184 28.742 11.3693 31.0395 11.7401C33.352 12.1105 34.901 12.5032 35.6865 12.9183C35.6865 12.9183 33.9522 21.034 33.9522 21.034C33.9522 21.034 33.9522 21.034 33.9522 21.034C33.9522 21.034 33.9522 21.034 33.9522 21.034C33.9522 21.034 33.9522 21.034 33.9522 21.034ZM78.7032 53.6301C78.6439 53.882 78.6142 54.2452 78.6142 54.7194C78.6142 56.3055 79.222 57.0985 80.4376 57.0985C81.401 57.0985 82.7647 56.3723 84.5286 54.9196C84.5286 54.9196 85.796 57.7435 85.796 57.7435C85.0104 58.9442 83.6022 60.2634 81.5714 61.7012C79.5406 63.1242 77.1838 63.8356 74.5008 63.8356C72.4404 63.8356 70.8024 63.3836 69.587 62.4796C68.3715 61.5604 67.734 60.1595 67.6747 58.2771C67.6747 58.2771 67.8527 56.7206 67.8527 56.7206C66.1629 58.7366 64.1025 60.4265 61.6715 61.79C59.2404 63.1538 56.5648 63.8356 53.6447 63.8356C48.5455 63.8356 44.736 62.0939 42.216 58.6105C39.6962 55.1124 38.4363 50.5396 38.4363 44.8918C38.4363 39.3035 39.6073 33.9301 41.9492 28.7717C44.2913 23.6132 47.7081 19.3961 52.1995 16.1202C56.6909 12.8294 62.0347 11.184 68.2307 11.184C69.8019 11.184 71.514 11.3693 73.3668 11.7401C75.2197 12.1105 76.8429 12.5329 78.2363 13.0073C78.2363 13.0073 84.5286 11.184 84.5286 11.184C84.5286 11.184 78.7032 53.6301 78.7032 53.6301C78.7032 53.6301 78.7032 53.6301 78.7032 53.6301C78.7032 53.6301 78.7032 53.6301 78.7032 53.6301C78.7032 53.6301 78.7032 53.6301 78.7032 53.6301ZM71.677 17.6543C70.5208 17.1058 69.0385 16.8315 67.2302 16.8315C63.5837 16.8315 60.5449 18.2175 58.114 20.9894C55.683 23.7466 53.9043 27.2375 52.7777 31.462C51.6659 35.6866 51.11 39.9482 51.11 44.2471C51.11 48.2641 51.7103 51.3843 52.911 53.6077C54.1265 55.8164 55.9201 56.9207 58.2918 56.9207C59.8186 56.9207 61.3529 56.4019 62.8945 55.3644C64.4361 54.3267 65.8146 53.1111 67.03 51.7178C67.03 51.7178 71.677 17.6543 71.677 17.6543C71.677 17.6543 71.677 17.6543 71.677 17.6543C71.677 17.6543 71.677 17.6543 71.677 17.6543C71.677 17.6543 71.677 17.6543 71.677 17.6543ZM104.207 46.2482C103.792 49.776 103.584 51.9031 103.584 52.6295C103.584 54.0228 103.851 55.0085 104.385 55.5867C104.933 56.1647 105.874 56.4537 107.209 56.4537C108.424 56.4537 109.803 56.1647 111.344 55.5867C112.901 55.0085 114.198 54.297 115.235 53.4521C115.235 53.4521 116.236 56.8317 116.236 56.8317C114.65 58.5809 112.397 60.1892 109.476 61.6567C106.571 63.1094 103.295 63.8356 99.6489 63.8356C97.0992 63.8356 95.0833 63.1835 93.601 61.879C92.1187 60.5746 91.3776 58.492 91.3776 55.6312C91.3776 54.4156 91.6814 51.5622 92.2891 47.0707C92.2891 47.0707 96.1136 18.855 96.1136 18.855C96.1136 18.855 90.6438 18.855 90.6438 18.855C90.6438 18.855 91.6444 14.4749 91.6444 14.4749C91.6444 14.4749 97.1141 12.5625 97.1141 12.5625C98.9374 10.8579 101.094 6.67041 103.584 0C103.584 0 110.41 0 110.41 0C110.41 0 108.854 12.3847 108.854 12.3847C108.854 12.3847 119.793 12.3847 119.793 12.3847C119.793 12.3847 118.882 18.855 118.882 18.855C118.882 18.855 107.942 18.855 107.942 18.855C107.942 18.855 104.207 46.2482 104.207 46.2482C104.207 46.2482 104.207 46.2482 104.207 46.2482C104.207 46.2482 104.207 46.2482 104.207 46.2482C104.207 46.2482 104.207 46.2482 104.207 46.2482ZM135.019 36.5984C134.767 38.8515 134.552 40.4301 134.374 41.3342C133.766 46.0776 133.462 49.1163 133.462 50.4504C133.462 52.8815 133.885 54.6158 134.73 55.6534C135.589 56.6761 136.864 57.1875 138.554 57.1875C140.511 57.1875 142.445 56.5798 144.357 55.3644C146.269 54.1489 147.893 52.6887 149.227 50.984C149.227 50.984 154.496 11.6509 154.496 11.6509C154.496 11.6509 166.525 11.6509 166.525 11.6509C166.525 11.6509 160.7 53.8079 160.7 53.8079C160.581 54.9048 160.67 55.7275 160.967 56.2759C161.278 56.8243 161.737 57.0985 162.345 57.0985C162.879 57.0985 163.449 56.9355 164.057 56.6094C164.665 56.2684 165.517 55.6384 166.614 54.7194C166.614 54.7194 167.882 57.5433 167.882 57.5433C167.096 58.8181 165.636 60.1892 163.501 61.6567C161.382 63.1094 158.958 63.8356 156.231 63.8356C154.111 63.8356 152.488 63.3836 151.361 62.4795C150.234 61.5604 149.612 60.3152 149.493 58.7441C149.493 58.7441 149.404 57.6323 149.404 57.6323C149.404 57.1579 149.464 56.5576 149.582 55.8312C149.582 55.8312 149.404 55.72 149.404 55.72C144.913 61.1304 139.629 63.8356 133.551 63.8356C130.157 63.8356 127.274 62.9092 124.902 61.0565C122.53 59.2036 121.315 56.2463 121.255 52.1847C121.255 49.813 121.685 45.5292 122.545 39.3331C122.782 37.8211 122.93 36.791 122.99 36.2426C122.99 36.2426 125.458 19.6555 125.458 19.6555C125.458 19.6555 120.166 16.5648 120.166 16.5648C120.166 16.5648 120.9 12.8295 120.9 12.8295C120.9 12.8295 136.019 11.2951 136.019 11.2951C136.019 11.2951 138.109 12.2957 138.109 12.2957C138.109 12.2957 135.019 36.5984 135.019 36.5984C135.019 36.5984 135.019 36.5984 135.019 36.5984C135.019 36.5984 135.019 36.5984 135.019 36.5984C135.019 36.5984 135.019 36.5984 135.019 36.5984ZM230.315 53.6301C230.255 53.882 230.226 54.2452 230.226 54.7194C230.226 56.3055 230.833 57.0985 232.049 57.0985C233.012 57.0985 234.376 56.3723 236.141 54.9196C236.141 54.9196 237.408 57.7435 237.408 57.7435C236.623 58.9442 235.215 60.2634 233.183 61.7012C231.152 63.1242 228.795 63.8356 226.113 63.8356C224.053 63.8356 222.415 63.3836 221.199 62.4796C219.983 61.5604 219.346 60.1595 219.286 58.2771C219.286 58.2771 219.464 56.7206 219.464 56.7206C217.774 58.7366 215.714 60.4265 213.284 61.79C210.853 63.1538 208.177 63.8356 205.257 63.8356C200.158 63.8356 196.348 62.0939 193.828 58.6105C191.308 55.1124 190.048 50.5396 190.048 44.8918C190.048 39.3035 191.219 33.9301 193.561 28.7717C195.903 23.6132 199.32 19.3961 203.811 16.1202C208.302 12.8294 213.646 11.184 219.843 11.184C221.414 11.184 223.125 11.3693 224.979 11.7401C226.832 12.1105 228.455 12.5329 229.849 13.0073C229.849 13.0073 236.141 11.184 236.141 11.184C236.141 11.184 230.315 53.6301 230.315 53.6301C230.315 53.6301 230.315 53.6301 230.315 53.6301C230.315 53.6301 230.315 53.6301 230.315 53.6301C230.315 53.6301 230.315 53.6301 230.315 53.6301ZM223.29 17.6543C222.133 17.1058 220.65 16.8315 218.841 16.8315C215.196 16.8315 212.157 18.2175 209.726 20.9894C207.295 23.7466 205.516 27.2375 204.39 31.462C203.278 35.6866 202.722 39.9482 202.722 44.2471C202.722 48.264 203.322 51.3843 204.523 53.6077C205.738 55.8163 207.532 56.9207 209.904 56.9207C211.43 56.9207 212.964 56.4019 214.507 55.3644C216.049 54.3267 217.427 53.1111 218.643 51.7177C218.643 51.7177 223.29 17.6543 223.29 17.6543C223.29 17.6543 223.29 17.6543 223.29 17.6543C223.29 17.6543 223.29 17.6543 223.29 17.6543C223.29 17.6543 223.29 17.6543 223.29 17.6543ZM243.99 21.034C243.738 19.9964 243.456 19.285 243.146 18.8995C242.849 18.4992 242.463 18.2991 241.989 18.2991C241.188 18.2991 240.277 18.7216 239.254 19.5665C239.254 19.5665 237.965 16.476 237.965 16.476C238.706 15.5125 240.092 14.4081 242.123 13.163C244.153 11.9178 246.324 11.2952 248.637 11.2952C250.994 11.2952 252.75 11.7991 253.907 12.8073C255.063 13.8004 255.797 15.3271 256.107 17.3875C256.107 17.3875 261.377 51.9846 261.377 51.9846C261.377 51.9846 262.646 62.0125 262.646 62.0125C262.646 62.0125 266.936 53.3633 266.936 53.3633C269.546 47.8936 271.532 43.0982 272.895 38.9775C274.259 34.8417 274.94 30.8914 274.94 27.1263C274.94 25.9702 274.852 24.9993 274.673 24.2137C274.495 23.428 274.222 22.5163 273.852 21.4788C273.184 19.7889 272.85 18.1806 272.85 16.6537C272.85 15.0233 273.347 13.7263 274.34 12.7628C275.349 11.7843 276.794 11.2952 278.677 11.2952C280.871 11.2952 282.59 12.1475 283.835 13.8522C285.079 15.5421 285.702 17.6024 285.702 20.0334C285.702 24.347 284.998 28.4308 283.59 32.2849C282.197 36.1387 280.077 40.9193 277.232 46.6262C275.23 50.9989 272.635 55.8461 269.449 61.1676C266.262 66.4743 263.452 70.9434 261.021 74.575C258.531 78.5328 255.871 81.3863 253.039 83.1353C250.223 84.8994 246.873 85.7814 242.99 85.7814C241.404 85.7814 239.683 85.5812 237.83 85.1809C235.978 84.7955 234.719 84.3879 234.051 83.9581C234.051 83.9581 236.874 76.0425 236.874 76.0425C237.542 76.6503 238.662 77.1913 240.233 77.6657C241.819 78.1549 243.375 78.3995 244.901 78.3995C247.629 78.3995 250.253 77.4434 252.772 75.5311C255.292 73.619 257.797 70.5062 260.288 66.1926C260.288 66.1926 253.729 66.1926 253.729 66.1926C253.729 66.1926 243.99 21.034 243.99 21.034C243.99 21.034 243.99 21.034 243.99 21.034C243.99 21.034 243.99 21.034 243.99 21.034C243.99 21.034 243.99 21.034 243.99 21.034ZM326.612 53.6301C326.553 53.882 326.523 54.2452 326.523 54.7194C326.523 56.3055 327.131 57.0985 328.346 57.0985C329.31 57.0985 330.674 56.3723 332.439 54.9196C332.439 54.9196 333.705 57.7435 333.705 57.7435C332.92 58.9442 331.512 60.2634 329.481 61.7012C327.45 63.1242 325.093 63.8356 322.41 63.8356C320.35 63.8356 318.712 63.3836 317.496 62.4796C316.281 61.5604 315.643 60.1595 315.584 58.2771C315.584 58.2771 315.762 56.7206 315.762 56.7206C314.071 58.7366 312.011 60.4265 309.581 61.79C307.15 63.1538 304.474 63.8356 301.554 63.8356C296.456 63.8356 292.646 62.0939 290.125 58.6105C287.605 55.1124 286.345 50.5396 286.345 44.8918C286.345 39.3035 287.516 33.9301 289.858 28.7717C292.201 23.6132 295.618 19.3961 300.11 16.1202C304.6 12.8294 309.943 11.184 316.141 11.184C317.711 11.184 319.423 11.3693 321.276 11.7401C323.129 12.1105 324.753 12.5329 326.146 13.0073C326.146 13.0073 332.439 11.184 332.439 11.184C332.439 11.184 326.612 53.6301 326.612 53.6301C326.612 53.6301 326.612 53.6301 326.612 53.6301C326.612 53.6301 326.612 53.6301 326.612 53.6301C326.612 53.6301 326.612 53.6301 326.612 53.6301ZM319.587 17.6543C318.431 17.1058 316.948 16.8315 315.139 16.8315C311.493 16.8315 308.455 18.2175 306.023 20.9894C303.592 23.7466 301.813 27.2375 300.687 31.462C299.575 35.6866 299.019 39.9482 299.019 44.2471C299.019 48.264 299.619 51.3843 300.82 53.6077C302.035 55.8163 303.829 56.9207 306.201 56.9207C307.727 56.9207 309.262 56.4019 310.805 55.3644C312.346 54.3267 313.724 53.1111 314.94 51.7177C314.94 51.7177 319.587 17.6543 319.587 17.6543C319.587 17.6543 319.587 17.6543 319.587 17.6543C319.587 17.6543 319.587 17.6543 319.587 17.6543C319.587 17.6543 319.587 17.6543 319.587 17.6543ZM355.586 22.2125C357.824 18.8773 360.492 16.2092 363.59 14.2081C366.688 12.192 369.941 11.184 373.351 11.184C380.881 11.184 384.646 15.6532 384.646 24.5916C384.646 26.9485 383.883 32.2255 382.355 40.4226C382.118 42.0087 381.903 43.2242 381.711 44.0692C380.865 48.8718 380.413 52.333 380.353 54.4526C380.353 54.4526 380.353 54.8085 380.353 54.8085C380.353 56.3352 380.843 57.0985 381.821 57.0985C382.355 57.0985 382.926 56.9503 383.535 56.6539C384.142 56.3427 384.935 55.7943 385.913 55.0086C385.913 55.0086 387.18 57.8323 387.18 57.8323C386.276 59.1072 384.786 60.4265 382.711 61.79C380.651 63.1538 378.138 63.8358 375.173 63.8358C372.312 63.8358 370.333 63.2131 369.236 61.9681C368.155 60.7228 367.614 59.0701 367.614 57.0098C367.673 55.1865 368.243 51.5696 369.325 46.1592C369.325 46.1592 369.882 43.0685 369.882 43.0685C370.001 42.5201 370.253 41.0676 370.638 38.7108C371.038 36.3389 371.357 34.0784 371.594 31.929C371.846 29.7648 371.973 27.8896 371.973 26.3036C371.973 23.5169 371.654 21.6122 371.016 20.5894C370.379 19.5517 369.245 19.0329 367.614 19.0329C365.598 19.0329 363.359 20.1594 360.899 22.4125C358.454 24.6508 356.349 27.3487 354.584 30.506C354.584 30.506 350.204 62.9241 350.204 62.9241C350.204 62.9241 338.286 62.9241 338.286 62.9241C338.286 62.9241 344.113 19.5665 344.113 19.5665C344.113 19.5665 339.466 17.1207 339.466 17.1207C339.466 17.1207 340.199 13.3853 340.199 13.3853C340.199 13.3853 354.406 11.184 354.406 11.184C354.406 11.184 356.496 12.2069 356.496 12.2069C356.496 12.2069 355.586 22.2125 355.586 22.2125C355.586 22.2125 355.586 22.2125 355.586 22.2125C355.586 22.2125 355.586 22.2125 355.586 22.2125C355.586 22.2125 355.586 22.2125 355.586 22.2125ZM431.653 53.6301C431.593 53.882 431.564 54.2452 431.564 54.7194C431.564 56.3055 432.171 57.0985 433.387 57.0985C434.35 57.0985 435.714 56.3723 437.479 54.9196C437.479 54.9196 438.746 57.7435 438.746 57.7435C437.961 58.9442 436.553 60.2634 434.521 61.7012C432.49 63.1242 430.133 63.8356 427.451 63.8356C425.391 63.8356 423.753 63.3836 422.537 62.4796C421.321 61.5604 420.684 60.1595 420.624 58.2771C420.624 58.2771 420.802 56.7206 420.802 56.7206C419.112 58.7366 417.052 60.4265 414.622 61.79C412.19 63.1538 409.515 63.8356 406.595 63.8356C401.495 63.8356 397.685 62.0939 395.165 58.6105C392.646 55.1124 391.386 50.5396 391.386 44.8918C391.386 39.3035 392.557 33.9301 394.898 28.7717C397.241 23.6132 400.659 19.3961 405.15 16.1202C409.64 12.8294 414.984 11.184 421.181 11.184C422.752 11.184 424.463 11.3693 426.316 11.7401C428.17 12.1105 429.793 12.5329 431.187 13.0073C431.187 13.0073 437.479 11.184 437.479 11.184C437.479 11.184 431.653 53.6301 431.653 53.6301C431.653 53.6301 431.653 53.6301 431.653 53.6301C431.653 53.6301 431.653 53.6301 431.653 53.6301C431.653 53.6301 431.653 53.6301 431.653 53.6301ZM424.627 17.6543C423.471 17.1058 421.988 16.8315 420.179 16.8315C416.534 16.8315 413.495 18.2175 411.064 20.9894C408.632 23.7466 406.854 27.2375 405.728 31.462C404.615 35.6866 404.059 39.9482 404.059 44.2471C404.059 48.264 404.66 51.3843 405.86 53.6077C407.076 55.8163 408.87 56.9207 411.242 56.9207C412.768 56.9207 414.302 56.4019 415.845 55.3644C417.386 54.3267 418.765 53.1111 419.981 51.7177C419.981 51.7177 424.627 17.6543 424.627 17.6543C424.627 17.6543 424.627 17.6543 424.627 17.6543C424.627 17.6543 424.627 17.6543 424.627 17.6543C424.627 17.6543 424.627 17.6543 424.627 17.6543ZM460.626 22.2125C462.864 18.8773 465.532 16.2092 468.63 14.2081C471.728 12.192 474.982 11.184 478.392 11.184C485.922 11.184 489.687 15.6532 489.687 24.5916C489.687 26.9485 488.923 32.2255 487.395 40.4226C487.158 42.0087 486.943 43.2242 486.752 44.0692C485.906 48.8718 485.453 52.333 485.394 54.4526C485.394 54.4526 485.394 54.8085 485.394 54.8085C485.394 56.3352 485.883 57.0985 486.861 57.0985C487.395 57.0985 487.967 56.9503 488.575 56.6539C489.182 56.3427 489.975 55.7943 490.953 55.0086C490.953 55.0086 492.22 57.8323 492.22 57.8323C491.316 59.1072 489.827 60.4265 487.751 61.79C485.691 63.1538 483.178 63.8358 480.213 63.8358C477.353 63.8358 475.374 63.2131 474.277 61.9681C473.195 60.7228 472.654 59.0701 472.654 57.0098C472.713 55.1865 473.284 51.5696 474.366 46.1592C474.366 46.1592 474.923 43.0685 474.923 43.0685C475.041 42.5201 475.293 41.0676 475.678 38.7108C476.078 36.3389 476.397 34.0784 476.634 31.929C476.887 29.7648 477.013 27.8896 477.013 26.3036C477.013 23.5169 476.694 21.6122 476.057 20.5894C475.419 19.5517 474.285 19.0329 472.654 19.0329C470.638 19.0329 468.4 20.1594 465.939 22.4125C463.494 24.6508 461.389 27.3487 459.624 30.506C459.624 30.506 455.245 62.9241 455.245 62.9241C455.245 62.9241 443.326 62.9241 443.326 62.9241C443.326 62.9241 449.153 19.5665 449.153 19.5665C449.153 19.5665 444.504 17.1207 444.504 17.1207C444.504 17.1207 445.239 13.3853 445.239 13.3853C445.239 13.3853 459.446 11.184 459.446 11.184C459.446 11.184 461.537 12.2069 461.537 12.2069C461.537 12.2069 460.626 22.2125 460.626 22.2125C460.626 22.2125 460.626 22.2125 460.626 22.2125C460.626 22.2125 460.626 22.2125 460.626 22.2125C460.626 22.2125 460.626 22.2125 460.626 22.2125Z" fill="#4CAF50" transform="translate(0 10)" />
    <path id="Vector#1" d="M0 14.0223L10.3493 0L30.013 0L22.7981 53.3805L20.5645 72.4452L4.2825 72.4452L12.1883 14.0223L0 14.0223L0 14.0223L0 14.0223L0 14.0223Z" fill="#4CAF50" fill-rule="evenodd" transform="translate(163 0)" />
    <path id="Vector-2#1" d="M0 18.6954L18.4859 0L36.0798 0L18.4859 18.6954L0 18.6954L0 18.6954L0 18.6954L0 18.6954Z" fill="#FFC107" fill-rule="evenodd" transform="translate(167 54)" />
    <path id="path2#1" d="M1.14276 6.21002C1.14276 6.21002 5.73901 9.54919 13.5619 9.31439C19.8243 8.54614 30.3609 8.9303 39.4352 0C36.0923 25.7115 6.37738 23.3043 2.17767 20.6989C-2.01996 18.0938 1.14276 6.21002 1.14276 6.21002C1.14276 6.21002 1.14276 6.21002 1.14276 6.21002C1.14276 6.21002 1.14276 6.21002 1.14276 6.21002C1.14276 6.21002 1.14276 6.21002 1.14276 6.21002C1.14276 6.21002 1.14276 6.21002 1.14276 6.21002Z" fill="#FFC107" fill-rule="evenodd" transform="translate(473 52)" />
  </g>
</svg>